<svg width="550" height="331" viewBox="0 0 550 331" fill="none" xmlns="http://www.w3.org/2000/svg">
<g clip-path="url(#clip0_13_596)">
<path d="M525.587 182.995L523.864 199.148L519.588 239.268H433.686C434.357 230.276 435.274 217.333 436.254 203.361C436.35 201.965 436.452 200.561 436.548 199.148C439.005 164.025 441.693 124.28 441.693 124.28L452.986 126.757L474.897 131.554L483.826 133.508L507.735 138.749C519.656 141.357 527.855 161.679 525.587 182.995Z" fill="#F2F2F2"/>
<path d="M460.61 59.2853L471.174 81.0501L450.871 97.9914L442.209 71.2383L460.61 59.2853Z" fill="#FFB6B6"/>
<path d="M447.162 79.8758C461.615 79.8758 473.332 66.0808 473.332 49.0638C473.332 32.0468 461.615 18.2518 447.162 18.2518C432.709 18.2518 420.992 32.0468 420.992 49.0638C420.992 66.0808 432.709 79.8758 447.162 79.8758Z" fill="#FFB6B6"/>
<path d="M445.283 55.952C443.205 52.2285 444.02 50.281 442.281 48.9126C442.281 48.9126 441.581 48.3619 436.571 48.048C435.449 38.5424 434.049 37.3897 434.048 37.3897C432.435 36.0611 430.04 36.4928 428.55 37.3054C425.398 39.0239 425.764 42.7361 423.642 43.4465C420.711 44.4278 415.378 38.8957 414.853 32.5626C414.424 27.3965 417.251 22.379 418.372 22.6444C419.484 22.9076 422.145 18.9069 423.583 18.9686C424.564 19.0107 428.574 16.9586 429.653 17.119C430.831 17.2943 434.715 19.6809 434.877 19.1356C436.002 15.3465 435.671 14.2952 436.626 13.2112C438.317 11.2904 441.084 12.628 445.424 13.3461C454.354 14.8236 455.913 11.3567 460.49 13.7066C462.801 14.8936 464.736 18.095 468.51 24.4492C473.789 33.3355 476.428 37.7787 476.445 42.961C476.463 48.2461 474.289 47.9106 473.334 55.7346C472.271 64.4441 474.53 68.4265 472.063 71.2561C470.156 73.4429 466.28 73.9621 464.244 72.0428C460.758 68.7568 465.32 60.8276 461.462 55.0346C459.094 51.4786 454.332 49.8963 452.15 51.6541C449.683 53.6416 451.042 59.4753 449.308 60.0285C447.822 60.5022 445.645 56.6009 445.283 55.952Z" fill="#2F2E41"/>
<path d="M506.244 177.306C505.514 192.001 502.615 196.64 501.599 213.995C501.378 217.805 501.244 222.227 501.244 227.502C501.244 228.846 501.25 230.146 501.25 231.416C501.25 234.121 501.206 236.676 500.939 239.268C500.737 241.337 500.388 243.422 499.81 245.618H443.447C443.441 245.603 443.441 245.588 443.434 245.573C443.104 243.885 442.895 242.271 442.736 240.725C442.685 240.232 442.641 239.746 442.603 239.268C442.552 238.708 442.507 238.155 442.463 237.61C442.292 235.436 442.121 233.381 441.714 231.416C441.169 228.704 440.179 226.149 438.148 223.684C437.317 222.676 436.486 221.891 435.674 221.204C435.515 221.077 435.363 220.95 435.204 220.823C432.958 219.007 430.833 217.7 428.993 213.995C428.961 213.943 428.936 213.883 428.91 213.831C428.593 213.181 427.768 211.477 427.171 209.206C426.543 206.845 426.163 203.879 426.848 200.847C428.479 193.66 434.519 192.943 439.456 185.681C439.989 184.897 440.515 184.03 441.017 183.066C443.25 178.793 443.853 175.028 444.563 170.553C444.677 169.828 444.779 169.111 444.861 168.416C444.925 167.893 444.982 167.378 445.027 166.87C445.42 162.604 445.23 158.929 444.767 155.642C443.257 144.876 438.802 138.213 441.949 128.553C442.939 125.52 444.342 123.241 445.756 121.292C448.751 117.16 451.829 114.478 451.296 109.144C450.756 103.765 447.292 103.026 446.905 98.3267C446.708 95.9512 447.368 93.4485 448.605 90.9906V90.9833C452.565 83.0717 462.451 75.7878 468.732 76.0194C469.893 76.057 470.921 76.363 471.777 76.9532C474.881 79.1047 473.586 83.8038 478.339 90.3931C481.873 95.2862 485.87 97.2436 487.387 98.1698C493.395 101.861 498.281 112.745 501.599 126.663C501.625 126.768 501.65 126.872 501.676 126.984C503.725 135.702 505.172 145.601 505.889 155.642C506.193 159.892 506.371 164.166 506.409 168.394C506.441 171.771 506.377 174.699 506.244 177.306Z" fill="#774077"/>
<path d="M464.037 227.651L462.888 231.416L462.165 233.777L460.489 239.268L458.548 245.618H446.067L448.161 239.268L449.132 236.31L450.744 231.416L453.447 223.199L464.037 227.651Z" fill="#FFB6B6"/>
<path d="M501.796 125.378C501.765 125.864 501.72 126.401 501.676 126.984C501.181 132.916 500.013 143.532 498.307 155.642C497.406 162.029 496.352 168.835 495.166 175.596C492.615 190.186 489.443 204.552 485.857 213.995C485.217 215.698 484.557 217.237 483.884 218.597C483.37 219.635 482.83 220.658 482.266 221.667C480.439 224.977 478.389 228.115 476.264 231.043C476.181 231.17 476.086 231.29 475.991 231.416C475.648 231.894 475.293 232.365 474.938 232.836C473.199 235.144 471.422 237.296 469.703 239.268C467.609 241.674 465.591 243.803 463.783 245.618H443.516L443.434 245.573L440.515 244.049C440.515 244.049 441.346 242.899 442.736 240.725C443.022 240.284 443.326 239.798 443.656 239.268C444.062 238.618 444.5 237.901 444.969 237.124C445.946 235.495 447.057 233.583 448.25 231.416C450.56 227.225 453.193 222.07 455.851 216.102C456.156 215.407 456.467 214.705 456.778 213.995C456.784 213.972 456.797 213.95 456.803 213.928C457.33 212.717 457.85 211.47 458.37 210.2C462.78 199.397 464.043 190.432 464.405 187.526C464.912 183.418 465.616 177.672 465.426 171.352C465.299 167.184 464.785 162.776 463.561 158.398V158.391C463.307 157.472 463.021 156.553 462.698 155.642C462.12 154.006 461.435 152.392 460.623 150.801C457.038 143.793 454.126 143.502 451.809 135.867C451.124 133.603 449.569 128.493 450.045 123.099V123.092C450.103 122.427 450.198 121.755 450.325 121.082V121.075C450.356 120.888 450.401 120.694 450.446 120.507C450.807 118.856 451.404 117.22 452.311 115.666C454.081 112.648 456.498 110.855 458.662 109.787L458.669 109.779C461.169 108.554 463.326 108.293 463.745 108.248C473.015 107.277 480.204 116.451 484.132 121.463C485.648 123.398 487.038 125.02 488.307 126.342C498.186 136.726 500.895 130.092 501.599 126.663C501.707 126.133 501.765 125.677 501.796 125.378Z" fill="#774077"/>
<path d="M501.829 124.99C501.829 125.027 501.823 125.154 501.796 125.363C501.809 125.251 501.816 125.139 501.823 125.034C501.823 125.012 501.823 124.997 501.829 124.99Z" fill="#774077"/>
<path d="M451.435 282.628H111.306C108.146 282.628 105.57 285.653 105.57 289.374C105.57 293.101 108.146 296.127 111.306 296.127H451.435C454.595 296.127 457.165 293.101 457.165 289.374C457.165 285.653 454.595 282.628 451.435 282.628Z" fill="#E6E6E6"/>
<path d="M375.954 317.501H186.781C183.621 317.501 181.051 320.526 181.051 324.247C181.051 327.967 183.621 331 186.781 331H375.954C379.114 331 381.69 327.967 381.69 324.247C381.69 320.526 379.114 317.501 375.954 317.501Z" fill="#E6E6E6"/>
<path d="M149.154 60.7175L170.59 50.0959L179.784 72.2878L157.258 83.1131L149.154 60.7175Z" fill="#FFB6B6"/>
<path opacity="0.1" d="M149.154 60.7175L170.59 50.0959L179.784 72.2878L157.258 83.1131L149.154 60.7175Z" fill="black"/>
<path d="M152.201 52.261L173.348 80.9481C173.348 80.9481 158.637 135.616 143.926 140.487C129.215 145.359 102.092 169.174 102.092 169.174L68.073 143.194L84.6229 114.507C84.6229 114.507 124.618 50.0959 135.192 50.0959C145.765 50.0959 152.201 52.261 152.201 52.261Z" fill="#774077"/>
<path d="M123.63 239.268H74.4034L71.2911 234.37L58.5845 214.37L55.6607 209.769C55.6607 209.769 44.6274 185.954 46.926 164.303C49.2246 142.652 73.1299 137.781 73.1299 137.781H74.1137L103.379 168.059L101.632 196.238L110.9 214.37L123.63 239.268Z" fill="#2F2E41"/>
<path d="M84.485 239.268H71.2911V216.264L84.485 239.268Z" fill="#2F2E41"/>
<path d="M369.059 204.346L367.418 214.37L363.345 239.268H281.52C282.159 233.688 283.032 225.655 283.966 216.984C284.058 216.118 284.154 215.247 284.246 214.37C286.586 192.573 289.147 167.908 289.147 167.908L299.904 169.445L320.775 172.422L329.28 173.634L352.054 176.887C363.409 178.506 371.22 191.117 369.059 204.346Z" fill="#F2F2F2"/>
<path d="M484.858 239.268H440.476C441.152 238.332 441.534 237.791 441.534 237.791L454.838 235.203L482.251 229.877C482.251 229.877 483.501 233.682 484.858 239.268Z" fill="#2F2E41"/>
<path d="M296.605 71.5436L315.906 103.681L282.239 104.865L278.625 74.6631L296.605 71.5436Z" fill="#A0616A"/>
<path opacity="0.1" d="M296.605 71.5436L315.906 103.681L282.239 104.865L278.625 74.6631L296.605 71.5436Z" fill="black"/>
<path d="M201.423 138.129C198.946 129.718 193.253 124.405 188.707 126.261C184.16 128.118 182.484 136.44 184.962 144.854C185.913 148.231 187.537 151.291 189.698 153.777L200.573 189.26L214.607 182.897L202.396 148.592C202.786 145.063 202.452 141.476 201.423 138.129Z" fill="#A0616A"/>
<path d="M332.069 121.754L332.043 154.506L329.455 166.603L324.131 191.485L320.256 214.37L317.369 231.42L316.339 237.509C315.562 238.121 314.79 238.705 314.017 239.268H246.774C242.954 236.567 240.817 234.467 240.817 234.467C240.817 234.467 241.874 233.298 243.083 231.42C245.124 228.248 247.593 223.052 246.08 218.088C245.763 217.049 245.68 215.783 245.777 214.37C246.393 205.049 254.695 189.288 254.695 189.288L252.976 165.894L252.222 155.643L257.538 105.657L274.865 93.7974L277.856 93.4567L307.384 91.5785L319.588 92.4066L320.144 92.5852L332.069 121.754Z" fill="#CCCCCC"/>
<path d="M333.381 239.268H318.67L318.021 231.42L318.008 231.263L322.173 230.927L333.008 230.056L333.197 234.754L333.344 238.359L333.381 239.268Z" fill="#FFB6B6"/>
<path d="M337.002 129.673L343.182 172.362L338.139 214.37L337.353 220.908L335.964 232.454L335.537 236.004L335.551 236.389L335.656 239.268H318.187L317.543 231.42L317.488 230.716L316.173 214.641L316.15 214.37L313.36 180.281L318.831 155.643L319.235 153.829V153.824L321.615 111.638L319.772 92.4661L319.754 92.2875C319.79 92.3146 319.822 92.3417 319.859 92.3687C319.956 92.4391 320.052 92.5094 320.144 92.5852C330.883 100.607 337.283 114.68 337.002 129.673Z" fill="#CCCCCC"/>
<path d="M263.796 113.837L257.078 105.656C257.078 105.656 242.698 113.289 241.981 117.524C241.264 121.759 215.873 183.957 215.873 183.957L204.826 149.22L190.447 160.523C190.447 160.523 201.985 214.455 212.775 216.987C223.566 219.519 259.73 153.153 259.73 153.153L263.796 113.837Z" fill="#CCCCCC"/>
<path d="M536.567 213.995H13.4263C6.02166 213.995 0 221.092 0 229.81C0 238.528 6.02165 245.618 13.4263 245.618H536.567C543.972 245.618 550 238.529 550 229.81C550 221.091 543.972 213.995 536.567 213.995Z" fill="#E6E6E6"/>
<path d="M329.008 165.803L327.991 221.685C327.892 227.095 324.139 231.42 319.544 231.42H232.234C227.747 231.42 224.042 227.29 223.797 222.015L221.203 166.133C220.938 160.434 224.791 155.643 229.639 155.643H320.561C325.298 155.643 329.109 160.227 329.008 165.803Z" fill="#3F3D56"/>
<path d="M188.059 74.2069C199.596 74.2069 208.948 63.1954 208.948 49.6122C208.948 36.0289 199.596 25.0175 188.059 25.0175C176.522 25.0175 167.17 36.0289 167.17 49.6122C167.17 63.1954 176.522 74.2069 188.059 74.2069Z" fill="#FFB6B6"/>
<path d="M153.121 113.965L155.419 143.194L171.05 217.347L157.546 222.919L134.732 142.111L131.581 109.635L153.121 113.965Z" fill="#FFB6B6"/>
<path d="M146.903 165.803L145.886 221.685C145.788 227.095 142.035 231.42 137.439 231.42H50.1291C45.6421 231.42 41.9378 227.29 41.6929 222.015L39.0982 166.133C38.8336 160.434 42.687 155.643 47.5343 155.643H138.456C143.193 155.643 147.005 160.227 146.903 165.803Z" fill="#3F3D56"/>
<path d="M173.539 231.798C182.65 231.798 190.036 227.951 190.036 223.206C190.036 218.462 182.65 214.615 173.539 214.615C164.427 214.615 157.041 218.462 157.041 223.206C157.041 227.951 164.427 231.798 173.539 231.798Z" fill="#FFB6B6"/>
<path d="M120.711 118.434L130.135 59.2975C130.135 59.2975 156.339 54.9674 157.258 65.2514C158.178 75.5355 156.601 125.795 156.601 125.795L120.711 118.434Z" fill="#774077"/>
<path d="M179.627 53.4794C179.627 53.4794 192.549 48.0494 198 45.1279C203.45 42.2063 214.279 62.584 214.52 51.8219C214.761 41.0597 211.019 36.5465 211.019 36.5465C211.019 36.5465 210.085 13.0027 189.939 15.9463C189.939 15.9463 194.37 4.16706 179.824 2.34562C165.278 0.524176 142.649 41.881 144.675 48.0615C146.702 54.2421 149.131 59.3518 143.382 65.9602C137.632 72.5686 126.865 109.865 135.057 119.901C143.249 129.937 143.786 134.292 138.174 140.535C132.561 146.779 119.294 160.355 133.639 162.712C147.983 165.069 132.326 163.309 143.02 152.234C153.714 141.159 169.319 141.611 163.492 123.842C157.666 106.073 167.789 80.6097 166.522 76.7469C165.255 72.884 169.36 48.3547 169.36 48.3547C169.36 48.3547 178.913 46.7023 179.627 53.4794Z" fill="#2F2E41"/>
<path d="M286.285 83.1756C298.844 83.1756 309.025 71.1889 309.025 56.4025C309.025 41.6161 298.844 29.6294 286.285 29.6294C273.727 29.6294 263.546 41.6161 263.546 56.4025C263.546 71.1889 273.727 83.1756 286.285 83.1756Z" fill="#A0616A"/>
<path d="M288.1 20.4079C287.442 20.8601 286.561 20.1759 286.35 19.3139C286.139 18.452 286.385 17.5368 286.628 16.6869L287.855 12.4083C288.725 9.37389 289.649 6.23341 291.533 3.9238C294.378 0.437819 298.898 -0.448998 302.968 0.19347C308.193 1.01853 313.349 4.35017 315.779 9.85948C318.209 15.3688 317.175 23.0563 312.784 26.4935C319.042 34.9379 321.223 44.3488 320.878 55.548C320.534 66.7472 310.168 77.0541 303.409 84.9435C301.899 83.8661 300.527 78.8169 301.357 76.9826C302.187 75.1483 300.997 73.0233 302.026 71.3337C303.054 69.6442 303.914 72.3344 302.874 70.6545C302.218 69.5944 304.778 67.1556 303.803 66.5211C299.088 63.4522 297.52 56.532 294.558 51.2327C290.986 44.8407 284.872 40.512 278.402 39.7939C274.838 39.3983 271.073 40.1148 268.152 42.551C265.23 44.9872 263.339 49.3407 264.017 53.4796C262.262 51.3821 261.389 48.3084 261.718 45.3902C262.048 42.472 263.572 39.7735 265.731 38.2884C264.419 33.1774 265.543 27.2983 268.59 23.3432C271.637 19.3882 283.996 20.0618 288.444 21.1027L288.1 20.4079Z" fill="#2F2E41"/>
<path d="M288.791 39.9491C294.682 40.6979 298.936 46.7063 302.528 52.2551C304.598 55.4533 306.767 58.9852 306.715 63.006C306.662 67.071 304.354 70.5577 303.251 74.4102C301.447 80.7072 303.205 88.1991 307.498 92.5137C303.256 93.4614 298.671 89.7169 297.938 84.7075C297.086 78.8759 300.841 73.2475 300.396 67.3533C300.004 62.1605 296.529 58.164 293.574 54.2814C290.619 50.3988 287.844 45.2466 289.203 40.2851L288.791 39.9491Z" fill="#2F2E41"/>
<path d="M376.866 217.379C371.03 221.287 368.013 227.999 370.126 232.371C372.239 236.743 378.681 237.119 384.518 233.209C386.868 231.684 388.874 229.52 390.367 226.896L414.915 209.97L407.923 196.577L384.466 214.684C381.786 214.855 379.18 215.779 376.866 217.379Z" fill="#FFB6B6"/>
<path d="M459.979 93.2642C459.245 92.9219 452.808 90.052 446.932 93.8411C440.182 98.1937 439.14 108.13 438.774 111.615C437.929 119.665 440.418 121.469 440.943 129.619C441.926 144.867 444.517 127.472 440.379 134.432C438.946 136.842 424.315 174.175 416.245 181.487C400.552 195.709 390.586 205.725 390.586 205.725L401.963 220.276C401.963 220.276 419.941 214.636 435.831 202.488C452.13 190.027 460.28 183.797 466.585 171.608C467.128 170.559 480.12 144.583 473.143 115.859C471.551 109.307 468.635 97.3032 459.979 93.2642Z" fill="#774077"/>
<path d="M518.726 165.803L517.709 221.685C517.611 227.095 513.858 231.42 509.262 231.42H421.952C417.465 231.42 413.761 227.29 413.516 222.015L410.921 166.133C410.657 160.434 414.51 155.643 419.357 155.643H510.279C515.016 155.643 518.828 160.227 518.726 165.803Z" fill="#3F3D56"/>
</g>
<defs>
<clipPath id="clip0_13_596">
<rect width="550" height="331" fill="white"/>
</clipPath>
</defs>
</svg>
