<svg width="550" height="442" viewBox="0 0 550 442" fill="none" xmlns="http://www.w3.org/2000/svg">
<g clip-path="url(#clip0_13_272)">
<path d="M382.986 430.213L372.805 430.212L367.962 390.971H382.988L382.986 430.213Z" fill="#FFB6B6"/>
<path d="M382.714 426.89L371.844 422.472L371.533 422.344L365.532 426.89C362.143 426.891 358.894 428.236 356.497 430.63C354.101 433.025 352.755 436.272 352.755 439.659V440.073H385.579V426.89H382.714Z" fill="#2F2E41"/>
<path d="M474.974 416.986L465.862 421.524L444.01 388.562L457.459 381.864L474.974 416.986Z" fill="#FFB6B6"/>
<path d="M475.817 412.853L473.487 414.01L473.247 414.129L461.563 415.031L461.212 415.054L457.868 421.794C456.367 422.541 455.027 423.578 453.926 424.843C452.825 426.109 451.985 427.578 451.453 429.169C450.921 430.759 450.707 432.438 450.825 434.111C450.942 435.784 451.389 437.417 452.138 438.917L452.322 439.284L481.699 424.657L475.817 412.853Z" fill="#2F2E41"/>
<path d="M376.081 219.291L432.218 221.254L432.609 220.686C432.609 220.686 437.398 231.852 437.398 241.422C437.398 244.604 435.183 265.416 436.309 269.354C436.449 269.843 435.486 271.043 435.802 273.324C436.007 274.803 437.138 273.665 437.398 275.716C437.584 277.188 435.593 278.001 435.802 279.704C436.029 281.564 438.768 287.591 439.015 289.66C441.639 311.693 445.134 343.612 445.134 343.612C445.134 343.612 459.169 381.179 462.138 381.789C467.122 382.813 470.486 391.869 467.725 393.752C466.41 394.649 449.413 400.682 449.413 400.682C448.479 400.851 445.558 399.386 447.419 395.923C447.762 395.286 445.718 396.908 445.379 396.145C445.017 395.333 445.726 392.104 445.313 391.203C441.598 383.113 435.895 371.903 430.491 366.146C422.506 357.641 417.449 346.809 416.058 335.229L403.662 266.541L399.414 285.803L395.898 289.275L396.863 297.369L396.696 305.225L387.918 337.924C387.918 337.924 386.601 398.991 388.716 400.93C389.861 401.98 394.721 414.917 385.523 416.083L368.813 414.795C368.813 414.795 366.562 410.054 367.687 408.366C368.813 406.679 368.746 407.139 367.372 404.378C365.999 401.616 366.562 396.937 366.562 396.937C364.373 374.945 363.509 352.842 363.975 330.747C364.813 294.456 369.889 252.766 369.889 251.916C369.932 251.048 369.772 250.181 369.422 249.385V247.095L371.578 238.978L376.081 219.291Z" fill="#2F2E41"/>
<path d="M455.08 226.15C467.324 226.15 477.25 216.231 477.25 203.995C477.25 191.759 467.324 181.839 455.08 181.839C442.835 181.839 432.909 191.759 432.909 203.995C432.909 216.231 442.835 226.15 455.08 226.15Z" fill="#774077"/>
<path d="M452.055 215.526C451.672 215.526 451.295 215.437 450.952 215.266C450.61 215.094 450.312 214.846 450.082 214.54L444.034 206.48C443.84 206.222 443.698 205.927 443.618 205.613C443.538 205.3 443.52 204.974 443.566 204.653C443.611 204.333 443.72 204.025 443.885 203.746C444.05 203.468 444.268 203.224 444.527 203.03C444.786 202.836 445.081 202.695 445.395 202.614C445.709 202.534 446.035 202.516 446.356 202.562C446.676 202.608 446.985 202.716 447.263 202.881C447.542 203.046 447.786 203.264 447.98 203.523L451.937 208.795L462.1 193.561C462.28 193.291 462.511 193.06 462.78 192.879C463.049 192.699 463.351 192.573 463.669 192.51C463.986 192.446 464.314 192.446 464.631 192.508C464.949 192.571 465.252 192.696 465.521 192.875C465.791 193.055 466.023 193.286 466.203 193.555C466.383 193.824 466.509 194.126 466.572 194.444C466.635 194.761 466.636 195.088 466.572 195.406C466.509 195.724 466.384 196.026 466.204 196.295L454.107 214.428C453.889 214.756 453.594 215.027 453.249 215.218C452.904 215.409 452.518 215.514 452.124 215.525C452.101 215.525 452.078 215.526 452.055 215.526Z" fill="white"/>
<path d="M466.042 227.417C466.259 226.511 466.273 225.569 466.086 224.657C465.898 223.744 465.512 222.884 464.956 222.137C464.399 221.39 463.686 220.774 462.865 220.332C462.045 219.89 461.138 219.633 460.207 219.58L448.847 180.901L441.162 189.813L453.389 226.029C453.402 227.597 453.991 229.105 455.044 230.268C456.096 231.432 457.539 232.169 459.098 232.34C460.658 232.511 462.227 232.104 463.506 231.197C464.786 230.29 465.689 228.945 466.042 227.417Z" fill="#FFB8B8"/>
<path d="M458.028 208.547L456.552 203.14L458.244 199.91L458.116 199.535L457.605 198.084L454.955 195.962L455.905 193.259L452.553 183.744L451.731 182.093L432.49 143.484L427.877 134.225L426.808 132.55L423.48 127.334L418.931 120.212C418.207 119.074 417.265 118.09 416.158 117.319C415.051 116.549 413.801 116.005 412.482 115.722C412.056 115.628 411.624 115.561 411.189 115.522L410.878 115.498C410.101 115.456 409.322 115.501 408.556 115.634H408.54C407.189 115.868 405.901 116.379 404.757 117.133C403.856 117.716 403.054 118.437 402.379 119.271C400.825 121.197 400.018 123.617 400.104 126.09L400.248 129.982L400.391 133.523L407.143 145.725L407.582 146.523L407.59 146.547L428.364 184.111L434.629 195.436L435.578 197.159L439.792 199.95L438.667 202.757L438.994 207.128L442.577 209.831L447.773 215.103L447.98 215.534L449.576 214.728L449.728 214.649L450.087 214.545L455.027 213.053L458.028 212.152L458.124 212.12L458.946 211.913L458.028 208.547Z" fill="#E6E6E6"/>
<path d="M543.43 384.134C541.925 382.222 539.881 380.804 537.563 380.063C535.244 379.323 532.757 379.293 530.421 379.979L529.91 380.13L525.329 398.003C524.643 395.339 523.174 389.326 522.249 383.44L522.169 382.954L521.714 383.153C516.925 385.268 512.423 387.98 508.314 391.224C501.036 397.059 495.116 404.407 490.966 412.759C486.816 421.111 484.536 430.266 484.285 439.587L484.277 439.93L484.269 440.145L484.875 439.93L497.892 435.28C503.655 435.788 509.458 435.003 514.879 432.983C520.3 430.963 525.2 427.759 529.224 423.604C534.483 418.061 538.09 410.931 541.578 404.033C542.6 402.023 543.645 399.949 544.714 397.955C545.907 395.787 546.423 393.311 546.194 390.848C545.965 388.384 545.002 386.045 543.43 384.134Z" fill="#F2F2F2"/>
<path d="M209.402 87.4423H207.806V25.9974H323.252V27.5925H209.402V87.4423Z" fill="#3F3D56"/>
<path d="M340.956 44.3113C353.2 44.3113 363.126 34.3919 363.126 22.1557C363.126 9.91943 353.2 0 340.956 0C328.711 0 318.785 9.91943 318.785 22.1557C318.785 34.3919 328.711 44.3113 340.956 44.3113Z" fill="#774077"/>
<path d="M337.931 33.6867C337.548 33.6867 337.171 33.5976 336.828 33.4264C336.486 33.2553 336.188 33.0068 335.958 32.7007L329.91 24.6413C329.716 24.3824 329.574 24.0878 329.494 23.7743C329.414 23.4608 329.396 23.1345 329.442 22.8141C329.487 22.4937 329.596 22.1855 329.761 21.907C329.926 21.6286 330.144 21.3853 330.403 21.1911C330.662 20.9969 330.957 20.8557 331.271 20.7754C331.585 20.695 331.911 20.6773 332.232 20.723C332.552 20.7688 332.861 20.8773 333.139 21.0422C333.418 21.2071 333.662 21.4252 333.856 21.6841L337.813 26.9563L347.976 11.7218C348.156 11.4521 348.387 11.2205 348.656 11.0402C348.925 10.8598 349.227 10.7342 349.545 10.6705C349.862 10.6069 350.19 10.6064 350.507 10.6692C350.825 10.732 351.128 10.8567 351.397 11.0364C351.667 11.216 351.899 11.447 352.079 11.7161C352.259 11.9852 352.385 12.2872 352.448 12.6048C352.511 12.9223 352.512 13.2493 352.448 13.5669C352.385 13.8846 352.26 14.1867 352.08 14.4559L339.983 32.5892C339.765 32.9171 339.47 33.1878 339.125 33.3787C338.78 33.5695 338.394 33.6748 338 33.6859C337.977 33.6863 337.954 33.6867 337.931 33.6867Z" fill="white"/>
<path d="M131.191 236.618H129.595V298.063H245.041V296.468H131.191V236.618Z" fill="#3F3D56"/>
<path d="M262.745 320.26C274.989 320.26 284.915 310.341 284.915 298.105C284.915 285.868 274.989 275.949 262.745 275.949C250.5 275.949 240.574 285.868 240.574 298.105C240.574 310.341 250.5 320.26 262.745 320.26Z" fill="#774077"/>
<path d="M259.72 309.636C259.337 309.636 258.96 309.546 258.617 309.375C258.275 309.204 257.977 308.956 257.747 308.65L251.699 300.59C251.505 300.331 251.363 300.037 251.283 299.723C251.203 299.41 251.185 299.083 251.231 298.763C251.276 298.443 251.385 298.134 251.55 297.856C251.715 297.577 251.933 297.334 252.192 297.14C252.451 296.946 252.746 296.805 253.06 296.724C253.374 296.644 253.7 296.626 254.021 296.672C254.341 296.718 254.65 296.826 254.929 296.991C255.207 297.156 255.451 297.374 255.645 297.633L259.602 302.905L269.765 287.671C269.945 287.401 270.176 287.169 270.445 286.989C270.714 286.809 271.016 286.683 271.334 286.619C271.651 286.556 271.979 286.555 272.297 286.618C272.614 286.681 272.917 286.806 273.187 286.985C273.456 287.165 273.688 287.396 273.868 287.665C274.048 287.934 274.174 288.236 274.237 288.554C274.3 288.871 274.301 289.198 274.237 289.516C274.174 289.833 274.049 290.136 273.869 290.405L261.772 308.538C261.554 308.866 261.259 309.137 260.914 309.328C260.569 309.518 260.183 309.624 259.789 309.635C259.766 309.635 259.743 309.636 259.72 309.636Z" fill="white"/>
<path d="M438.196 238.878C438.219 240.557 437.949 242.228 437.398 243.815L437.278 243.791C423.104 246.241 410.46 246.642 404.611 237.947C396.979 228.236 386.482 228.346 374.773 232.609L373.385 231.11L371.022 228.566L373.193 226.109L371.022 221.372L372.834 215.526L375.148 215.103L374.526 210.071L373.552 207.128L376.409 203.994L378.836 196.17L377.088 179.796C374.696 157.353 379.33 134.72 390.352 115.02L396.984 109.07L399.737 106.598L403.432 99.7072L407.335 100.162L417.901 101.382L418.26 102.243L420.854 108.496L434.517 123.163L433.902 129.352L433.631 132.079L433.432 134.041L432.49 143.484L428.651 182.061L428.364 184.111L425.275 206.29C430.295 211.139 434.732 220.479 436.863 229.012C437.103 229.961 436.424 230.926 436.6 231.852C436.847 233.16 437.925 234.404 438.044 235.624C438.156 236.705 438.206 237.791 438.196 238.878Z" fill="#E6E6E6"/>
<path d="M411.135 97.2373C421.271 97.2373 429.487 89.026 429.487 78.8969C429.487 68.7678 421.271 60.5565 411.135 60.5565C400.999 60.5565 392.782 68.7678 392.782 78.8969C392.782 89.026 400.999 97.2373 411.135 97.2373Z" fill="#FFB6B6"/>
<path d="M433.258 73.8934C432.172 70.5094 429.192 67.6462 425.656 67.272C425.924 65.0244 425.57 62.7464 424.632 60.686C423.694 58.6257 422.209 56.8619 420.337 55.5868C418.466 54.3117 416.28 53.5742 414.018 53.4545C411.757 53.3347 409.505 53.8374 407.51 54.9078C407.086 54.3986 406.537 54.0075 405.918 53.7722C405.298 53.5369 404.628 53.4654 403.973 53.5648C402.663 53.7805 401.428 54.3213 400.381 55.1376C397.781 57.038 395.745 59.6075 394.49 62.5724C393.236 65.5373 392.809 68.7867 393.255 71.9748C393.247 70.3576 393.964 73.4864 396.02 73.7629C397.733 74.1073 399.364 74.7795 400.822 75.7424C402.28 76.7052 403.905 77.3861 405.614 77.7499C407.339 78.002 407.784 84.9118 406.552 89.3621C406.318 90.2055 406.2 91.3371 406.978 91.739C407.936 92.234 408.904 90.9896 409.975 90.8682C410.456 90.8607 410.921 91.0399 411.272 91.3683C411.624 91.6966 411.833 92.1483 411.858 92.6282C411.859 93.1097 411.745 93.5845 411.525 94.0131C411.305 94.4416 410.986 94.8115 410.595 95.092C409.807 95.6449 408.935 96.067 408.012 96.3421L408.322 96.7811C408.593 97.2829 409.029 97.675 409.558 97.8902C410.086 98.1053 410.673 98.1302 411.217 97.9605C412.445 99.4398 425.092 95.3322 425.708 92.632C428.357 90.2473 430.557 87.4076 432.203 84.2476C433.849 81.0525 434.225 77.3543 433.258 73.8934Z" fill="#2F2E41"/>
<path d="M448.1 129.75C447.845 131.888 445.841 133.483 443.735 133.93C442.663 134.136 441.564 134.154 440.486 133.985C439.434 133.829 438.393 133.597 437.374 133.292C436.113 132.933 434.865 132.529 433.631 132.079C430.105 130.821 426.706 129.232 423.48 127.334C421.04 125.91 418.704 124.317 416.488 122.565C415.339 121.655 414.225 120.706 413.145 119.717L414.493 120.355C413.288 118.736 412.083 117.117 410.878 115.498C409.713 113.935 408.55 112.372 407.39 110.809C407.319 110.713 407.263 110.649 407.239 110.617V110.609C406.704 109.9 406.177 109.19 405.651 108.48C404.062 106.351 402.498 103.224 404.326 101.302C404.716 100.928 405.189 100.651 405.706 100.494C406.223 100.338 406.77 100.306 407.303 100.401C407.876 100.475 408.43 100.654 408.939 100.927C410.335 101.831 411.519 103.025 412.41 104.429C413.655 102.618 416.073 101.948 418.26 102.243C418.38 102.251 418.492 102.267 418.603 102.283C420.878 102.674 421.859 101.446 423.831 102.65C424.748 103.208 425.307 106.079 426.225 106.638C426.744 106.957 428.667 107.435 429.194 107.762C430.231 108.4 429.968 110.785 431.013 111.423C431.787 111.894 433.862 110.625 434.637 111.096C435.451 111.598 436.584 114.916 437.398 115.411C439.018 116.408 440.319 114.589 441.939 115.578C444.022 116.862 446.241 118.29 447.118 120.571C447.893 122.581 446.895 125.332 444.972 125.906C445.89 126.016 446.73 126.478 447.314 127.196C447.898 127.913 448.18 128.829 448.1 129.75Z" fill="#E6E6E6"/>
<path opacity="0.2" d="M433.631 132.079L433.432 134.041C431.17 133.823 428.944 133.322 426.807 132.55C423.995 131.606 421.555 129.794 419.84 127.374C418.755 125.747 417.622 124.128 416.488 122.565C414.605 119.949 412.738 117.508 411.189 115.522C409.298 113.122 407.877 111.383 407.39 110.809C407.319 110.713 407.263 110.649 407.239 110.617L407.215 110.594L407.239 110.609C416.722 122.603 425.679 129.52 433.902 129.352C433.902 129.352 434.868 132.526 433.631 132.079Z" fill="black"/>
<path d="M346.852 36.0329C346.619 36.9346 346.586 37.8765 346.756 38.7922C346.926 39.7079 347.295 40.5753 347.837 41.3331C348.379 42.0909 349.08 42.7209 349.892 43.1785C350.704 43.6361 351.606 43.9103 352.535 43.9817L363.144 82.8733L371 74.1112L359.477 37.6661C359.494 36.0981 358.934 34.5784 357.905 33.3951C356.875 32.2118 355.447 31.4471 353.891 31.2458C352.335 31.0445 350.759 31.4206 349.461 32.3029C348.164 33.1852 347.236 34.5124 346.852 36.0329Z" fill="#FFB8B8"/>
<path d="M409.138 135.485L409.066 131.944L402.379 119.271L402.131 118.808L402.115 118.784L396.984 109.07L372.221 62.1541L369.562 61.1779L369.695 57.367L369.562 53.2025L366.367 51.062L365.005 48.4811L363.074 49.0314H363.066L363.01 49.0473L354.566 51.416H354.558L352.802 52.405L351.206 57.1902L350.857 59.4557L351.206 63.5705L355.197 64.3681L353.875 68.5874L357.886 80.7256C362.906 101.94 369.761 120.252 381.597 130.707L382.57 132.303L390.272 144.896C391.323 146.618 392.86 147.991 394.691 148.842C396.522 149.692 398.564 149.981 400.559 149.673H400.567C401.922 149.463 403.219 148.98 404.382 148.253C405.454 147.592 406.391 146.735 407.143 145.725C408.518 143.9 409.246 141.669 409.21 139.385L409.138 135.485Z" fill="#E6E6E6"/>
<path d="M549.05 441.755L332.174 442C331.922 442 331.68 441.9 331.502 441.722C331.324 441.544 331.224 441.302 331.224 441.05C331.224 440.799 331.324 440.557 331.502 440.379C331.68 440.201 331.922 440.101 332.174 440.101L549.05 439.856C549.302 439.856 549.543 439.956 549.722 440.134C549.9 440.312 550 440.554 550 440.805C550 441.057 549.9 441.299 549.722 441.477C549.543 441.655 549.302 441.755 549.05 441.755Z" fill="#CACACA"/>
<path d="M66.7412 122.589C66.728 110.6 71.3113 99.0619 79.5489 90.3466L51.2786 51.4622C50.1149 49.8602 48.6194 48.5277 46.894 47.5553C45.1685 46.5829 43.2537 45.9935 41.2798 45.8272C39.3059 45.661 37.3193 45.9218 35.4553 46.5918C33.5913 47.2619 31.8938 48.3255 30.4781 49.7102C20.7939 59.1442 13.1056 70.427 7.86995 82.8883C2.63425 95.3496 -0.0421045 108.735 -0.000124036 122.251C-4.51833e-05 127.354 0.380701 132.451 1.13893 137.498C1.43639 139.493 2.16583 141.4 3.27639 143.085C4.38695 144.77 5.85191 146.192 7.56909 147.253C9.26688 148.303 11.1735 148.97 13.1559 149.208C15.1383 149.446 17.1488 149.249 19.0472 148.631L67.8616 132.781C67.1187 129.434 66.743 126.016 66.7412 122.589Z" fill="#F2F2F2"/>
<path d="M69.3374 137.996L18.5883 154.475C16.7101 155.081 14.9844 156.084 13.528 157.416C12.0717 158.747 10.9188 160.376 10.1474 162.192C9.37604 164.008 9.00424 165.968 9.05721 167.94C9.11017 169.911 9.58667 171.849 10.4544 173.621C17.6815 188.273 28.3351 200.97 41.5132 210.635C54.6913 220.301 70.0059 226.651 86.1604 229.148C88.1279 229.45 90.1374 229.324 92.0513 228.777C93.9651 228.23 95.7379 227.276 97.2481 225.98C98.7563 224.687 99.9667 223.084 100.796 221.28C101.626 219.476 102.055 217.514 102.054 215.528V168.16C94.5378 166.212 87.6191 162.439 81.9119 157.177C76.2047 151.915 71.8855 145.326 69.3374 137.996Z" fill="#E6E6E6"/>
<path d="M221.954 167.592C221.097 165.559 219.812 163.734 218.186 162.241C216.56 160.749 214.632 159.623 212.532 158.942L157.184 140.97C153.953 148.564 148.782 155.175 142.189 160.143C135.597 165.111 127.813 168.261 119.619 169.276V226.906C119.621 229.118 120.1 231.304 121.025 233.313C121.951 235.323 123.3 237.109 124.98 238.549C126.66 239.989 128.632 241.049 130.761 241.656C132.89 242.264 135.124 242.404 137.312 242.068C155.295 239.288 172.343 232.219 187.013 221.459C201.682 210.7 213.542 196.566 221.587 180.255C222.555 178.295 223.088 176.149 223.151 173.964C223.214 171.778 222.806 169.605 221.954 167.592Z" fill="#3F3D56"/>
<path d="M208.202 35.4055C206.627 33.864 204.737 32.6799 202.662 31.934C200.587 31.188 198.376 30.8977 196.178 31.0827C193.981 31.2678 191.849 31.9239 189.928 33.0065C188.008 34.089 186.343 35.5724 185.047 37.3558L147.207 89.4042C151.56 93.7651 155.011 98.9402 157.363 104.634C159.715 110.328 160.921 116.429 160.914 122.589C160.914 123.735 160.858 124.867 160.778 125.992L220.928 145.523C223.054 146.209 225.305 146.424 227.524 146.152C229.742 145.88 231.874 145.127 233.772 143.948C235.669 142.768 237.287 141.189 238.511 139.321C239.736 137.453 240.538 135.34 240.863 133.13C241.707 127.512 242.131 121.838 242.131 116.156C242.177 101.111 239.198 86.2105 233.37 72.3388C227.541 58.4671 218.983 45.9074 208.202 35.4055Z" fill="#774077"/>
<path d="M113.828 75.5337C121.929 75.5246 129.894 77.6148 136.945 81.6002L160.041 49.8321C161.219 48.2143 162.031 46.3604 162.421 44.3984C162.812 42.4364 162.772 40.4131 162.304 38.468C161.851 36.56 160.989 34.773 159.778 33.2303C158.567 31.6876 157.035 30.4259 155.288 29.5323C141.029 22.2851 125.262 18.4964 109.264 18.4731C93.2664 18.4499 77.4882 22.1926 63.2077 29.3983C61.4068 30.3064 59.825 31.5949 58.5718 33.1745C57.3187 34.7542 56.4242 36.5872 55.9503 38.5466C55.4829 40.4781 55.4414 42.488 55.8285 44.4371C56.2157 46.3862 57.0223 48.2279 58.1925 49.8345L84.3932 85.8729C92.7354 79.1688 103.123 75.5202 113.828 75.5337Z" fill="#E6E6E6"/>
</g>
<defs>
<clipPath id="clip0_13_272">
<rect width="550" height="442" fill="white"/>
</clipPath>
</defs>
</svg>
