<svg width="550" height="442" viewBox="0 0 550 442" fill="none" xmlns="http://www.w3.org/2000/svg">
<g clip-path="url(#clip0_13_494)">
<path d="M453.178 215.892L476.396 190.255L457.394 175.036L448.007 196.102L405.419 210.383C403.984 209.545 402.339 209.15 400.686 209.244C399.033 209.339 397.443 209.919 396.109 210.916C394.776 211.912 393.757 213.28 393.176 214.854C392.596 216.428 392.479 218.139 392.84 219.779C393.201 221.419 394.024 222.918 395.21 224.091C396.395 225.264 397.891 226.062 399.515 226.387C401.14 226.712 402.822 226.551 404.358 225.922C405.893 225.294 407.215 224.225 408.163 222.847L453.178 215.892Z" fill="#FFB6B6"/>
<path d="M495.738 157.969C499.947 167.495 474.27 194.708 474.27 194.708C467.248 200.473 466.135 214.901 457.43 216.508C433.95 220.841 448.554 216.306 442.489 218.674C436.781 220.902 442.038 201.831 438.22 200.619C436.036 199.925 448.181 191.952 448.181 191.952C448.181 191.952 459.126 170.164 465.856 158.863C467.7 155.632 470.319 152.927 473.47 151.001C476.621 149.074 480.201 147.988 483.877 147.843C483.877 147.843 491.53 148.443 495.738 157.969Z" fill="#E6E6E6"/>
<path d="M387.033 441.144H120.245C113.922 441.137 107.859 438.584 103.388 434.045C98.9168 429.507 96.4016 423.353 96.3945 416.935V24.2095C96.4016 17.791 98.9168 11.6374 103.388 7.09882C107.859 2.56022 113.922 0.00724859 120.245 0H387.033C393.356 0.0072505 399.418 2.56022 403.89 7.09882C408.361 11.6374 410.876 17.791 410.883 24.2095V416.935C410.876 423.353 408.361 429.507 403.89 434.045C399.418 438.584 393.356 441.137 387.033 441.144Z" fill="#3F3D56"/>
<path d="M387.502 425.698H119.775C117.826 425.696 115.957 424.909 114.579 423.509C113.201 422.11 112.426 420.214 112.423 418.235V22.909C112.426 20.9304 113.201 19.0335 114.579 17.6345C115.957 16.2354 117.826 15.4484 119.775 15.4462H387.502C389.451 15.4484 391.32 16.2354 392.699 17.6345C394.077 19.0335 394.852 20.9304 394.854 22.909V418.235C394.852 420.214 394.077 422.11 392.699 423.509C391.32 424.909 389.451 425.696 387.502 425.698Z" fill="white"/>
<path d="M132.837 197.354C133.584 187.054 134.818 174.39 144.858 168.887C149.596 166.291 154.612 167.209 159.375 169.233C163.978 171.189 168.314 173.52 173.271 174.44C181.816 175.937 190.609 174.598 198.345 170.623C206.138 166.69 212.39 160.195 216.083 152.196C217.984 148.128 219.555 143.719 222.356 140.168C223.765 138.304 225.633 136.85 227.772 135.951C229.911 135.053 232.246 134.742 234.541 135.05C245.068 136.369 252.055 145.733 260.447 151.245C264.484 153.896 269.119 155.831 274.006 155.594C279.019 155.35 283.564 152.942 287.405 149.797C295.557 143.124 300.014 132.805 308.569 126.587C312.625 123.713 317.332 121.927 322.251 121.397C327.17 120.866 332.141 121.608 336.702 123.553C345.47 127.392 351.678 135.994 353.318 145.461C353.711 147.793 353.812 150.166 353.62 152.524C353.513 153.915 355.648 153.908 355.754 152.524C356.074 147.618 355.273 142.703 353.412 138.163C351.552 133.623 348.682 129.581 345.029 126.353C337.46 119.725 326.885 117.571 317.267 120.122C312.37 121.44 307.869 123.965 304.165 127.473C300.208 131.178 297.087 135.666 293.747 139.92C290.488 144.07 286.893 148.078 282.32 150.759C280.13 152.113 277.676 152.967 275.128 153.261C272.58 153.556 270 153.283 267.566 152.462C262.629 150.771 258.446 147.289 254.497 143.954C250.425 140.517 246.373 137.078 241.479 134.894C236.928 132.863 231.71 131.878 226.973 133.878C222.703 135.681 219.876 139.424 217.781 143.471C215.655 147.58 214.14 152.011 211.659 155.929C209.259 159.679 206.179 162.933 202.583 165.517C195.279 170.814 186.398 173.39 177.439 172.809C172.571 172.458 168.145 170.897 163.738 168.852C158.873 166.594 153.749 164.246 148.275 165.34C143.554 166.283 139.581 169.54 136.823 173.429C133.639 177.92 132.239 183.426 131.509 188.833C131.127 191.662 130.909 194.508 130.702 197.354C130.601 198.745 132.736 198.739 132.837 197.354Z" fill="#E4E4E4"/>
<path d="M510.146 430.707L500.011 430.707L495.189 391.024L510.147 391.025L510.146 430.707Z" fill="#FFB6B6"/>
<path d="M509.876 427.345L499.061 422.886L498.742 422.753L492.771 427.345C489.493 427.345 486.343 428.629 483.976 430.929C481.609 433.23 480.208 436.369 480.066 439.692C480.05 439.875 480.05 440.066 480.05 440.257V440.681H512.731V427.345H509.876Z" fill="#2F2E41"/>
<path d="M486.41 421.133L476.849 424.547L459.325 388.739L473.435 383.7L486.41 421.133Z" fill="#FFB6B6"/>
<path d="M485.056 418.052L473.396 417.49L473.052 417.472L468.92 423.815C465.829 424.919 463.276 427.192 461.796 430.159C460.315 433.127 460.021 436.56 460.973 439.743C461.018 439.921 461.08 440.101 461.143 440.281L461.281 440.68L492.109 429.67L487.749 417.091L485.056 418.052Z" fill="#2F2E41"/>
<path d="M513.728 259.605C523 259.24 511.514 334.246 511.514 334.246C511.514 334.246 514.874 400.098 514.162 403.553C513.449 407.009 514.072 416.33 514.072 416.33C512.255 412.973 493.512 415.506 493.512 415.506L490.963 348.766L477.945 295.291L459.897 331.136L477.195 386.156C477.195 386.156 484.2 392.736 483.455 395.336C482.71 397.936 464.361 403.8 460.99 403.933C457.618 404.065 459.14 399.721 458.977 395.442C458.813 391.164 442.947 351.513 437.366 338.021C431.785 324.53 436.124 305.507 438.972 291.684C441.821 277.86 456.809 251.919 456.809 251.919C475.412 230.62 504.455 259.97 513.728 259.605Z" fill="#2F2E41"/>
<path d="M487.779 134.988C497.547 134.988 505.465 126.951 505.465 117.036C505.465 107.122 497.547 99.0845 487.779 99.0845C478.012 99.0845 470.093 107.122 470.093 117.036C470.093 126.951 478.012 134.988 487.779 134.988Z" fill="#FFB6B6"/>
<path d="M478.936 146.853C475.126 149.152 472.847 153.377 471.538 157.676C469.116 165.635 467.658 173.863 467.196 182.18L462.163 231.8L452.45 256.23C473.223 254.399 519.288 262.991 519.288 262.991C519.288 262.991 521 262.412 519.288 260.674C517.577 258.937 515.91 260.476 517.622 258.739C519.333 257.002 518.154 258.937 517.583 257.2C517.013 255.463 517.583 256.621 518.154 256.042C518.724 255.463 513.737 250.251 513.737 250.251L518.301 219.819L524.006 158.435C517.16 149.749 503.392 144.628 503.392 144.628L499.834 138.128L482.046 139.572L478.936 146.853Z" fill="#E6E6E6"/>
<path d="M530.707 215.481L526.318 189.221L511.045 192.03L512.386 215L505.701 262.811C504.144 263.383 502.785 264.402 501.789 265.745C500.793 267.087 500.203 268.694 500.091 270.371C499.979 272.048 500.351 273.721 501.16 275.188C501.969 276.654 503.181 277.849 504.648 278.629C506.115 279.408 507.774 279.737 509.422 279.576C511.07 279.414 512.636 278.77 513.929 277.721C515.223 276.672 516.188 275.263 516.706 273.667C517.225 272.071 517.274 270.357 516.849 268.732L530.707 215.481Z" fill="#FFB6B6"/>
<path d="M518.089 154.033C527.973 156.922 531.866 194.395 531.866 194.395C536.343 212.48 527.87 220.097 525.72 220.017C519.609 219.791 516.224 214.481 512.846 216.658C510.915 217.903 510.554 203.597 510.554 203.597C510.554 203.597 503.624 190.286 499.467 177.773C498.227 174.257 497.884 170.48 498.469 166.794C499.054 163.108 500.548 159.631 502.813 156.689C502.813 156.689 508.206 151.145 518.089 154.033Z" fill="#E6E6E6"/>
<path d="M508.016 111.55C507.958 108.634 507.633 104.903 505.62 101.928C503.922 99.4252 500.497 97.4417 497.304 98.4335C497.34 97.7854 497.198 97.14 496.894 96.5689C496.59 95.9978 496.136 95.5235 495.583 95.1986C494.359 94.5631 493.008 94.2179 491.634 94.1891C488.395 93.8822 485.039 93.5634 481.759 94.195C478.078 94.9034 475.065 96.8278 473.501 99.4783L473.466 99.5609L473.146 101.131C473.103 101.342 473.016 101.541 472.891 101.714C472.765 101.887 472.605 102.031 472.419 102.135C472.234 102.24 472.028 102.303 471.815 102.318C471.603 102.334 471.39 102.301 471.192 102.223C470.975 102.141 470.74 102.117 470.512 102.155C470.283 102.192 470.068 102.29 469.887 102.437C469.707 102.585 469.568 102.778 469.484 102.998C469.399 103.217 469.373 103.455 469.407 103.687L469.494 104.313L468.569 104.136C468.337 104.09 468.097 104.108 467.874 104.188C467.651 104.268 467.454 104.407 467.301 104.591C467.149 104.774 467.048 104.996 467.008 105.232C466.968 105.469 466.991 105.712 467.075 105.936L467.331 106.651C467.14 106.653 466.951 106.695 466.776 106.773C466.601 106.851 466.444 106.964 466.313 107.105C466.126 107.311 466.009 107.572 465.977 107.85C465.946 108.128 466.002 108.409 466.138 108.652C467.175 110.448 468.644 111.947 470.407 113.008C471.2 113.493 472.055 113.865 472.948 114.112C473.135 114.165 473.326 114.213 473.524 114.254C480.664 115.816 488.026 116.04 495.245 114.915C494.82 116.361 494.657 117.873 494.763 119.378C494.825 120.231 495.117 121.051 495.606 121.748C496.095 122.446 496.763 122.994 497.537 123.333C497.866 123.446 498.205 123.529 498.549 123.581C498.878 123.635 499.203 123.716 499.52 123.823C499.988 123.997 500.402 124.293 500.721 124.682C501.039 125.07 501.251 125.537 501.335 126.036C501.419 126.534 501.372 127.046 501.198 127.52C501.024 127.994 500.73 128.413 500.346 128.734C500.346 128.734 501.869 130.015 502.061 129.95C502.81 129.615 503.437 129.049 503.853 128.333C506.755 124.094 508.156 118.451 508.016 111.55Z" fill="#2F2E41"/>
<path d="M44.6814 382.315L42.6038 392.896C42.4472 393.704 42.2836 394.528 42.1057 395.344C40.3692 394.979 38.5688 395.081 36.8832 395.64C38.2205 397.58 39.4189 399.615 40.4692 401.728C39.16 405.823 37.2389 409.608 34.0229 412.345C31.8749 414.132 29.3095 415.328 26.5739 415.816C23.8384 416.305 21.025 416.069 18.4052 415.133L18.4977 414.714C15.0397 407.903 16.9181 399.316 21.2157 393.026C23.4076 389.922 26.0046 387.135 28.9356 384.742C31.8385 382.286 34.9763 380.083 38.0856 377.909C38.784 377.422 39.6097 377.157 40.4572 377.148C41.3047 377.139 42.1355 377.387 42.8435 377.86C43.5515 378.333 44.1045 379.01 44.4319 379.803C44.7593 380.597 44.8461 381.471 44.6814 382.315Z" fill="#E4E4E4"/>
<path d="M19.1451 440.591C18.2706 434.125 17.3713 427.577 17.9846 421.041C18.5296 415.238 20.2735 409.569 23.8254 404.921C25.7106 402.458 28.0045 400.348 30.604 398.686C31.2821 398.252 31.9054 399.342 31.2308 399.774C26.7332 402.659 23.2544 406.92 21.296 411.941C19.133 417.526 18.7858 423.613 19.1614 429.545C19.387 433.132 19.8644 436.695 20.3461 440.255C20.3849 440.416 20.3616 440.586 20.2809 440.731C20.2002 440.875 20.0683 440.982 19.9121 441.031C19.7532 441.075 19.5839 441.053 19.4408 440.97C19.2977 440.888 19.1925 440.751 19.1479 440.59L19.1451 440.591Z" fill="#F2F2F2"/>
<path d="M252.624 9.47374C253.745 9.47374 254.653 8.55167 254.653 7.41424C254.653 6.27681 253.745 5.35474 252.624 5.35474C251.504 5.35474 250.595 6.27681 250.595 7.41424C250.595 8.55167 251.504 9.47374 252.624 9.47374Z" fill="white"/>
<path d="M371.25 198.06H130.586C130.386 198.06 130.195 197.979 130.054 197.836C129.912 197.692 129.833 197.498 129.833 197.295L130.199 196.444L371.25 196.531C371.45 196.53 371.642 196.61 371.783 196.752C371.925 196.895 372.005 197.089 372.006 197.292C372.007 197.495 371.928 197.69 371.787 197.834C371.647 197.978 371.455 198.059 371.256 198.06L371.25 198.06Z" fill="#3F3D56"/>
<path d="M176.365 192.711H174.887V196.984H176.365V192.711Z" fill="#3F3D56"/>
<path d="M220.59 168.156H219.112V196.984H220.59V168.156Z" fill="#3F3D56"/>
<path d="M264.906 133.489H263.429V196.984H264.906V133.489Z" fill="#3F3D56"/>
<path d="M309.222 103.878H307.745V196.984H309.222V103.878Z" fill="#3F3D56"/>
<path d="M353.538 171.767H352.061V196.984H353.538V171.767Z" fill="#3F3D56"/>
<path d="M308.574 98.6884C311.07 98.6884 313.093 96.6348 313.093 94.1014C313.093 91.5681 311.07 89.5144 308.574 89.5144C306.079 89.5144 304.055 91.5681 304.055 94.1014C304.055 96.6348 306.079 98.6884 308.574 98.6884Z" fill="#795679"/>
<path d="M264.97 125.596C267.466 125.596 269.489 123.542 269.489 121.009C269.489 118.476 267.466 116.422 264.97 116.422C262.474 116.422 260.451 118.476 260.451 121.009C260.451 123.542 262.474 125.596 264.97 125.596Z" fill="#795679"/>
<path d="M352.891 167.905C355.386 167.905 357.41 165.851 357.41 163.317C357.41 160.784 355.386 158.73 352.891 158.73C350.395 158.73 348.372 160.784 348.372 163.317C348.372 165.851 350.395 167.905 352.891 167.905Z" fill="#795679"/>
<path d="M218.671 357.146V303.024C218.671 302.33 219.467 301.767 220.448 301.767H228.375C229.357 301.767 230.152 302.33 230.152 303.024V357.287L218.671 357.146Z" fill="#3F3D56"/>
<path d="M244.855 357.328V315.975C244.855 315.308 245.651 314.767 246.632 314.767H254.56C255.541 314.767 256.336 315.308 256.336 315.975V357.239L244.855 357.328Z" fill="#3F3D56"/>
<path d="M297.224 357.232V336.2C297.154 335.948 297.947 335.73 299 335.711H306.928C307.981 335.73 308.774 335.948 308.704 336.2V357.287L297.224 357.232Z" fill="#3F3D56"/>
<path d="M192.487 357.232V336.2C192.487 335.93 193.282 335.711 194.263 335.711H202.191C203.172 335.711 203.968 335.93 203.968 336.2V357.287L192.487 357.232Z" fill="#3F3D56"/>
<path d="M271.039 357.022V255.459C271.039 254.156 271.835 253.1 272.816 253.1H280.744C281.725 253.1 282.52 254.156 282.52 255.459V357.287L271.039 357.022Z" fill="#795679"/>
<path d="M342.871 358.222H163.57C163.381 358.222 163.2 358.146 163.067 358.011C162.933 357.875 162.858 357.692 162.858 357.5C162.858 357.309 162.933 357.125 163.067 356.989C163.2 356.854 163.381 356.778 163.57 356.778H342.871C343.06 356.778 343.241 356.854 343.374 356.989C343.508 357.125 343.583 357.309 343.583 357.5C343.583 357.692 343.508 357.875 343.374 358.011C343.241 358.146 343.06 358.222 342.871 358.222Z" fill="#3F3D56"/>
<path d="M549.288 442H0.711514C0.522808 442 0.341832 441.924 0.208397 441.789C0.0749623 441.653 0 441.469 0 441.278C0 441.086 0.0749623 440.903 0.208397 440.767C0.341832 440.632 0.522808 440.556 0.711514 440.556H549.288C549.477 440.556 549.658 440.632 549.792 440.767C549.925 440.903 550 441.086 550 441.278C550 441.469 549.925 441.653 549.792 441.789C549.658 441.924 549.477 442 549.288 442Z" fill="#CACACA"/>
<path d="M175.828 187.962C178.324 187.962 180.347 185.908 180.347 183.375C180.347 180.842 178.324 178.788 175.828 178.788C173.332 178.788 171.309 180.842 171.309 183.375C171.309 185.908 173.332 187.962 175.828 187.962Z" fill="#795679"/>
<path d="M219.942 162.684C222.438 162.684 224.461 160.63 224.461 158.097C224.461 155.564 222.438 153.51 219.942 153.51C217.446 153.51 215.423 155.564 215.423 158.097C215.423 160.63 217.446 162.684 219.942 162.684Z" fill="#795679"/>
</g>
<defs>
<clipPath id="clip0_13_494">
<rect width="550" height="442" fill="white"/>
</clipPath>
</defs>
</svg>
