<svg width="636" height="513" viewBox="0 0 636 513" fill="none" xmlns="http://www.w3.org/2000/svg">
<g clip-path="url(#clip0_55_12)">
<path d="M82.9726 225.743C59.2981 215.41 40.3199 196.065 29.9229 171.667C24.1059 157.847 21.266 142.859 19.649 127.869C18.0625 113.162 17.7386 97.6476 23.8298 84.2702C27.1649 76.9457 32.2692 70.6439 38.6452 65.9789C45.0212 61.3139 52.4514 58.4449 60.2119 57.6513C67.9724 56.8577 75.7983 58.1666 82.9272 61.4506C90.056 64.7346 96.2445 69.8816 100.89 76.39C104.888 81.9919 107.699 88.7136 107.771 95.6875C107.921 110.316 96.6013 122.056 91.6355 135.744C86.5037 149.89 88.3533 165.564 89.2257 180.655C90.0981 195.745 89.5451 212.105 80.7333 224.134" fill="#F2F2F2"/>
<path d="M507.572 410.715C532.573 404.63 554.391 388.844 568.558 366.591C576.512 353.972 581.718 339.687 585.718 325.186C589.643 310.96 592.452 295.72 588.594 281.474C586.481 273.674 582.46 266.576 576.922 260.871C571.384 255.166 564.518 251.05 556.994 248.922C549.469 246.795 541.543 246.729 533.987 248.732C526.431 250.734 519.503 254.737 513.878 260.349C509.037 265.179 505.186 271.32 503.996 278.184C501.5 292.581 510.777 306.118 513.476 320.476C516.265 335.313 511.926 350.447 508.643 365.175C505.361 379.903 503.28 396.129 510.038 409.517" fill="#F2F2F2"/>
<path d="M316.9 387.225C281.263 387.342 246.591 375.199 218.293 352.689C190.587 330.693 170.345 300.097 160.505 265.339L161.914 264.913C181.815 336.031 245.547 385.7 316.9 385.7C338.234 385.742 359.362 381.361 379.048 372.815L379.613 374.222C359.749 382.846 338.428 387.267 316.9 387.225Z" fill="#E6E6E6"/>
<path d="M470.952 167.883C449.784 97.5584 387.875 50.3087 316.9 50.3087C295.868 50.2691 275.034 54.5258 255.582 62.8368L255.024 61.4269C281.045 50.3536 309.378 46.4587 337.275 50.1203C365.171 53.7818 391.683 64.8755 414.236 82.3245C441.684 103.692 462.006 133.451 472.353 167.428L470.952 167.883Z" fill="#E6E6E6"/>
<path d="M514.962 440.582C448.221 440.582 393.924 384.161 393.924 314.811C393.924 245.46 448.221 189.039 514.962 189.039C581.703 189.039 636 245.46 636 314.811C636 384.161 581.703 440.582 514.962 440.582ZM514.962 190.563C449.03 190.563 395.391 246.3 395.391 314.811C395.391 383.321 449.03 439.058 514.962 439.058C580.893 439.058 634.533 383.321 634.533 314.811C634.533 246.3 580.893 190.563 514.962 190.563Z" fill="#3F3D56"/>
<path d="M121.038 251.544C54.2973 251.544 0 195.123 0 125.772C0 56.4209 54.2973 0 121.038 0C187.779 0 242.076 56.4209 242.076 125.772C242.076 195.123 187.779 251.544 121.038 251.544ZM121.038 1.52451C55.1065 1.52451 1.46713 57.2617 1.46713 125.772C1.46713 194.282 55.1065 250.019 121.038 250.019C186.97 250.019 240.609 194.282 240.609 125.772C240.609 57.2617 186.97 1.52451 121.038 1.52451Z" fill="#3F3D56"/>
<path d="M111.627 126.479L100.939 148.05L111.492 154.336C111.492 154.336 118.732 130.107 118.945 129.187C120.037 128.723 120.968 127.926 121.614 126.901C122.26 125.876 122.592 124.671 122.565 123.446C122.538 122.221 122.153 121.033 121.462 120.04C120.772 119.047 119.807 118.295 118.696 117.884C117.585 117.473 116.38 117.422 115.241 117.738C114.101 118.054 113.081 118.722 112.315 119.653C111.548 120.585 111.072 121.736 110.95 122.955C110.827 124.174 111.063 125.403 111.627 126.479Z" fill="#A0616A"/>
<path d="M56.7745 129.413C61.5423 147.768 78.6796 159.426 92.9103 173.403C94.6626 174.042 96.524 174.294 98.3754 174.143C100.227 173.992 102.027 173.441 103.662 172.526C105.297 171.61 106.73 170.35 107.87 168.827C109.009 167.303 109.83 165.549 110.28 163.677L115.077 144.172L102.886 143.833L97.8411 149.531L81.5172 137.444L56.7745 129.413Z" fill="#3F3D56"/>
<path d="M496.968 334.353C499.038 334.494 500.973 335.468 502.362 337.069C503.751 338.67 504.484 340.771 504.405 342.925C504.382 343.362 504.325 343.797 504.233 344.225L527.738 359.611L514.743 365.583L494.415 350.056C492.738 349.524 491.277 348.429 490.262 346.944C489.246 345.458 488.732 343.665 488.8 341.844C488.849 340.808 489.093 339.792 489.519 338.855C489.945 337.917 490.545 337.076 491.284 336.379C492.023 335.682 492.887 335.143 493.827 334.793C494.766 334.444 495.763 334.289 496.759 334.34C496.829 334.343 496.898 334.348 496.968 334.353Z" fill="#FFB6B6"/>
<path d="M519.633 352.618L513.808 365.107L536.841 380.509C538.48 381.614 540.363 382.265 542.313 382.401C544.262 382.537 546.213 382.152 547.979 381.284C550.126 380.216 551.881 378.452 552.979 376.257C554.077 374.062 554.459 371.556 554.067 369.117L546.594 324.781C546.092 321.678 544.465 318.893 542.048 316.999C539.631 315.104 536.607 314.245 533.598 314.596C530.638 314.932 527.928 316.477 526.064 318.889C524.2 321.301 523.335 324.384 523.659 327.46C523.671 327.58 523.686 327.7 523.702 327.82C523.759 328.246 523.837 328.669 523.937 329.086L532.096 360.617L519.633 352.618Z" fill="#774077"/>
<path d="M498.7 357.681L490.026 334.426C489.73 333.63 489.75 332.744 490.082 331.963C490.413 331.183 491.03 330.571 491.795 330.262L496.673 328.297C497.439 327.99 498.291 328.011 499.042 328.355C499.793 328.7 500.382 329.34 500.68 330.135L509.354 353.391C509.65 354.187 509.63 355.072 509.298 355.853C508.966 356.634 508.35 357.246 507.585 357.555L502.707 359.519C501.941 359.827 501.089 359.806 500.338 359.461C499.586 359.117 498.997 358.477 498.7 357.681Z" fill="#3F3D56"/>
<path d="M492.808 331.218C492.396 331.384 492.064 331.714 491.885 332.135C491.706 332.556 491.695 333.033 491.855 333.462L500.529 356.717C500.689 357.146 501.006 357.491 501.411 357.677C501.816 357.862 502.275 357.874 502.688 357.708L507.566 355.744C507.978 355.577 508.31 355.247 508.489 354.826C508.668 354.406 508.678 353.929 508.519 353.5L499.845 330.244C499.685 329.815 499.368 329.47 498.963 329.285C498.558 329.099 498.099 329.088 497.686 329.253L492.808 331.218Z" fill="#774077"/>
<path d="M517.996 406.207H550.936V371.979H517.996V406.207Z" fill="#FFB8B8"/>
<path d="M439.881 472.782L427.301 468.384L420.295 503.966L428.819 506.946L439.881 472.782Z" fill="#FFB6B6"/>
<path d="M462.191 466.013L449.274 469.187L461.421 503.241L470.173 501.09L462.191 466.013Z" fill="#FFB6B6"/>
<path d="M549.754 415.149C556.356 460.884 468.438 433.845 468.438 433.845L440.872 473.359L424.734 470.31C424.734 470.31 431.995 446.589 444.964 414.788C450.723 400.666 516.12 404.117 516.12 404.117L517.477 393.044L554.889 392.281L549.754 415.149Z" fill="#2F2E41"/>
<path d="M465.663 424.033L441.719 424.605C445.557 458.912 448.941 472.597 448.941 472.597L462.879 468.023L465.663 424.033Z" fill="#2F2E41"/>
<path d="M530.937 316.359L537.567 307.504L547.024 307.078L547.968 315.406L552.655 317.652C557.334 336.124 558.056 355.438 554.772 374.231C554.144 374.846 553.685 375.623 553.442 376.483C553.2 377.344 553.183 378.256 553.393 379.125L553.696 380.384L553.668 380.43C552.671 382.065 552.333 384.042 552.726 385.933L554.964 390.066C555.767 391.552 556.249 393.201 556.377 394.901C556.504 396.6 556.274 398.307 555.702 399.905C555.129 401.502 554.229 402.95 553.064 404.15C551.899 405.349 550.496 406.27 548.953 406.849C535.197 412.03 522.301 413.96 512.761 399.421L509.761 348.753L530.937 316.359Z" fill="#774077"/>
<path d="M537.882 309.855C547.54 309.855 555.369 301.72 555.369 291.685C555.369 281.65 547.54 273.515 537.882 273.515C528.225 273.515 520.396 281.65 520.396 291.685C520.396 301.72 528.225 309.855 537.882 309.855Z" fill="#FFB8B8"/>
<path d="M546.661 269.781C554.065 269.929 559.937 277.065 559.777 285.72C565.256 291.661 563.445 298.93 558.866 306.704C550.492 307.714 548.537 308.135 541.192 311.247L540.224 306.549L538.031 312.667C536.165 313.562 534.312 314.543 532.474 315.612C531.153 309.315 531.48 303.195 535.031 297.864C538.186 293.128 530.509 287.505 525.019 288.3L525.1 283.95L523.721 288.274C521.581 289.908 519.213 289.316 516.786 288.135C512.849 266.877 543.326 261.063 546.661 269.781Z" fill="#2F2E41"/>
<path d="M432.694 512.964L427.09 512.203L426.78 506.569L423.527 511.72L408.662 509.702C407.949 509.605 407.285 509.274 406.766 508.758C406.247 508.241 405.901 507.566 405.778 506.83C405.655 506.094 405.761 505.337 406.081 504.669C406.402 504 406.919 503.456 407.559 503.115L420.5 496.207L421.199 490.648L433.588 493.117L432.694 512.964Z" fill="#2F2E41"/>
<path d="M473.39 509.757L467.783 510.506L466.102 505.14L464.22 510.983L449.351 512.971C448.638 513.066 447.915 512.922 447.286 512.56C446.658 512.198 446.157 511.637 445.858 510.958C445.558 510.279 445.475 509.519 445.621 508.788C445.767 508.057 446.133 507.393 446.668 506.894L457.486 496.785L456.798 491.225L469.383 490.329L473.39 509.757Z" fill="#2F2E41"/>
<path d="M499.076 338.604C501.146 338.745 503.082 339.719 504.471 341.32C505.86 342.921 506.593 345.022 506.514 347.176C506.491 347.613 506.433 348.048 506.342 348.476L529.846 363.863L516.852 369.834L496.524 354.307C494.846 353.775 493.386 352.68 492.37 351.195C491.355 349.709 490.841 347.916 490.909 346.095C490.957 345.059 491.202 344.043 491.628 343.106C492.054 342.168 492.654 341.327 493.393 340.63C494.132 339.933 494.996 339.394 495.935 339.045C496.875 338.695 497.871 338.54 498.868 338.591C498.938 338.594 499.007 338.599 499.076 338.604Z" fill="#FFB6B6"/>
<path d="M521.742 356.869L515.917 369.358L538.949 384.76C540.588 385.865 542.472 386.516 544.421 386.652C546.371 386.788 548.321 386.403 550.087 385.535C552.235 384.467 553.989 382.703 555.088 380.508C556.186 378.314 556.568 375.807 556.176 373.368L548.702 329.032C548.201 325.929 546.574 323.144 544.156 321.25C541.739 319.355 538.715 318.496 535.706 318.847C534.241 319.014 532.821 319.479 531.529 320.215C530.236 320.952 529.096 321.946 528.173 323.14C527.25 324.335 526.563 325.706 526.15 327.177C525.737 328.648 525.607 330.188 525.767 331.711C525.78 331.831 525.794 331.951 525.811 332.071C525.867 332.497 525.946 332.92 526.046 333.337L534.205 364.868L521.742 356.869Z" fill="#774077"/>
<path d="M80.9965 354.46L88.3849 357.923L104.757 329.959L93.8522 324.847L80.9965 354.46Z" fill="#A0616A"/>
<path d="M77.2589 362.346L99.9786 372.997L100.108 372.698C101.166 370.261 101.249 367.487 100.339 364.986C99.429 362.486 97.6002 360.463 95.255 359.364L92.525 354.146L83.3613 353.788L81.378 352.858L77.2589 362.346Z" fill="#2F2E41"/>
<path d="M172.504 316.43L180.307 314.154L175.571 281.794L164.053 285.154L172.504 316.43Z" fill="#A0616A"/>
<path d="M174.514 324.97L198.511 317.97L198.426 317.654C197.731 315.08 196.08 312.899 193.837 311.589C191.593 310.28 188.941 309.951 186.464 310.673L181.147 308.496L173.902 314.338L171.807 314.949L174.514 324.97Z" fill="#2F2E41"/>
<path d="M54.3999 221.874C54.5994 227.873 66.8777 244.058 73.3351 246.378C74.4327 246.773 75.0742 246.991 75.0742 246.991L77.3217 246.285L104.539 237.728C109.305 240.641 123.522 242.122 135.187 242.863C144.472 243.451 149.647 248.495 149.647 248.495C152.386 270.141 160.283 285.922 169.389 305.317L180.318 303.342L169.993 231.097C169.77 229.537 169.111 228.079 168.098 226.905C167.084 225.731 165.761 224.892 164.292 224.493L90.0228 204.306C90.0228 204.306 85.9269 203.536 77.2885 207.866C63.0669 214.996 54.2574 217.509 54.3999 221.874Z" fill="#2F2E41"/>
<path d="M68.5914 220.713C66.1006 226.129 69.7918 246.378 74.4865 251.537L75.7326 252.417L76.154 252.646C78.9702 262.544 109.192 291.495 109.192 291.495C98.9834 305.008 89.8862 321.494 85.8269 339.965L97.6307 344.447L130.857 292.904C131.727 291.554 132.184 289.962 132.167 288.337C132.15 286.713 131.66 285.131 130.761 283.801L117.206 263.738L95.1189 219.281C79.3362 218.775 70.406 216.774 68.5914 220.713Z" fill="#2F2E41"/>
<path d="M54.844 224.232C54.8074 224.232 53.9423 221.879 53.9247 221.874C53.6306 221.788 49.6483 221.38 50.5438 214.529L51.6897 206.989L50.5711 200.332L48.6895 198.377L51.7135 195.235L49.8603 180.984L49.1488 152.451C47.363 142.65 47.8294 133.686 56.4801 129.369L66.3977 119.81L77.6829 119.668L90.4862 127.555L96.6894 140.406L99.0954 175.231L100.892 179.587L100.738 179.732C100.726 179.743 99.5293 180.868 98.9917 181.486C98.7312 181.87 99.2198 184.741 99.8232 187.177L100.597 193.193L98.6471 194.641L101.182 197.753L108.093 209.891L107.679 209.784C107.213 209.664 102.867 216.443 55.1634 223.981C54.9433 224.016 54.9355 224.232 54.844 224.232Z" fill="#3F3D56"/>
<path d="M109.467 148.862L105.518 146.721C104.899 146.384 104.433 145.806 104.223 145.112C104.014 144.419 104.077 143.668 104.4 143.023L113.855 124.195C114.179 123.551 114.736 123.067 115.403 122.85C116.07 122.632 116.793 122.698 117.413 123.033L121.362 125.175C121.982 125.511 122.447 126.09 122.657 126.783C122.867 127.476 122.803 128.228 122.48 128.872L113.026 147.7C112.701 148.344 112.145 148.828 111.478 149.046C110.81 149.264 110.087 149.198 109.467 148.862Z" fill="#3F3D56"/>
<path d="M116.469 123.743C116.135 123.562 115.745 123.527 115.385 123.644C115.026 123.762 114.726 124.022 114.551 124.369L105.096 143.197C104.923 143.545 104.888 143.95 105.001 144.323C105.114 144.697 105.365 145.008 105.699 145.19L109.648 147.331C109.982 147.512 110.372 147.547 110.731 147.43C111.091 147.313 111.391 147.052 111.566 146.705L121.02 127.877C121.194 127.529 121.229 127.125 121.116 126.751C121.003 126.378 120.752 126.066 120.418 125.884L116.469 123.743Z" fill="#774077"/>
<path d="M74.5832 117.098C83.4945 117.098 90.7186 109.592 90.7186 100.332C90.7186 91.072 83.4945 83.5654 74.5832 83.5654C65.6719 83.5654 58.4479 91.072 58.4479 100.332C58.4479 109.592 65.6719 117.098 74.5832 117.098Z" fill="#A0616A"/>
<path d="M66.6473 111.131C65.9399 110.546 65.0575 110.238 64.1539 110.261C63.8736 110.308 63.6062 110.418 63.3696 110.581C63.1329 110.744 62.9323 110.958 62.7811 111.208C62.697 111.318 62.5879 111.404 62.4637 111.459C62.3394 111.514 62.2039 111.536 62.0695 111.522C60.3478 111.588 56.6781 108.269 56.4272 101.865C56.3079 98.8215 54.5555 93.6716 57.3452 90.8825C57.5322 89.7568 59.7106 78.1229 69.5301 77.8023C79.5832 77.4703 86.2754 79.5687 87.883 83.55C88.9995 86.7109 89.8482 89.967 90.4196 93.2813L90.7567 95.2519L89.9691 93.4255C89.9542 93.3912 88.5176 90.1211 85.8534 89.0302C85.8102 89.5624 85.6799 90.0831 85.4683 90.5698C84.5989 92.5274 82.4075 93.8049 79.8853 93.8247C78.1425 93.7689 76.4239 93.3849 74.8131 92.6914C74.9955 92.9649 75.0979 93.2873 75.1079 93.6199C75.118 93.9525 75.0352 94.281 74.8697 94.5659C74.7041 94.8507 74.4629 95.0798 74.1749 95.2254C73.8869 95.3709 73.5646 95.4269 73.2467 95.3865L72.7804 95.3262C72.6335 95.3071 72.4847 95.3421 72.36 95.4251C72.2353 95.508 72.1425 95.6338 72.0977 95.7804C72.0528 95.927 72.0588 96.0854 72.1146 96.2279C72.1703 96.3705 72.2724 96.4882 72.4029 96.5608L72.8136 96.7889L72.3152 97.0393C70.3093 97.9692 68.6564 99.5637 67.6151 101.573C66.5738 103.583 66.2027 105.894 66.5599 108.146L67.1409 111.542L66.6473 111.131Z" fill="#2F2E41"/>
<path d="M322.115 370.21C321.674 370.231 321.237 370.111 320.864 369.866C320.491 369.62 320.199 369.261 320.029 368.838C319.858 368.414 319.817 367.947 319.911 367.498C320.005 367.05 320.23 366.642 320.554 366.33L320.702 365.721C320.682 365.672 320.663 365.623 320.643 365.574C320.198 364.483 319.454 363.553 318.502 362.9C317.55 362.248 316.434 361.902 315.294 361.906C314.154 361.911 313.04 362.265 312.093 362.925C311.146 363.585 310.408 364.521 309.971 365.615C308.226 369.984 306.004 374.359 305.456 378.978C305.215 381.019 305.317 383.089 305.757 385.094C301.657 375.802 299.529 365.702 299.515 355.48C299.514 352.915 299.651 350.352 299.926 347.803C300.153 345.713 300.467 343.638 300.87 341.578C303.067 330.4 307.785 319.924 314.635 311.008C317.951 309.128 320.632 306.238 322.318 302.725C322.929 301.463 323.361 300.115 323.6 298.724C323.226 298.775 322.846 298.807 322.472 298.833C322.355 298.839 322.232 298.845 322.116 298.852L322.072 298.854C321.661 298.873 321.253 298.768 320.898 298.552C320.543 298.336 320.256 298.018 320.07 297.636C319.885 297.255 319.81 296.825 319.854 296.4C319.898 295.975 320.06 295.572 320.319 295.24C320.48 295.034 320.642 294.827 320.804 294.621C321.049 294.302 321.3 293.99 321.546 293.672C321.574 293.642 321.601 293.61 321.625 293.576C321.907 293.213 322.189 292.856 322.472 292.493C321.957 291.663 321.264 290.967 320.448 290.461C317.621 288.74 313.722 289.932 311.68 292.589C309.632 295.245 309.246 298.973 309.957 302.292C310.656 305.117 311.813 307.797 313.378 310.218C313.225 310.422 313.066 310.62 312.912 310.823C310.11 314.568 307.668 318.588 305.621 322.827C306.119 318.078 305.524 313.274 303.887 308.81C302.227 304.65 299.117 301.146 296.377 297.55C293.087 293.23 286.34 295.115 285.76 300.591C285.754 300.644 285.749 300.697 285.744 300.75C286.15 300.989 286.549 301.242 286.938 301.51C287.428 301.85 287.807 302.335 288.027 302.903C288.246 303.471 288.295 304.094 288.168 304.691C288.041 305.289 287.743 305.832 287.313 306.25C286.883 306.669 286.342 306.942 285.76 307.036L285.701 307.045C285.846 308.569 286.102 310.079 286.467 311.562C287.525 315.704 289.396 319.573 291.961 322.928C294.526 326.283 297.73 329.051 301.373 331.059C301.612 331.186 301.845 331.314 302.084 331.435C300.027 337.492 298.737 343.802 298.246 350.205C297.968 353.982 297.984 357.777 298.295 361.552L298.276 361.418C297.492 357.221 295.337 353.433 292.176 350.695C287.481 346.688 280.847 345.212 275.782 341.991C275.244 341.631 274.618 341.44 273.978 341.438C273.339 341.437 272.712 341.625 272.172 341.981C271.632 342.338 271.201 342.847 270.931 343.45C270.66 344.052 270.561 344.722 270.645 345.381C270.652 345.428 270.659 345.475 270.666 345.522C271.421 345.841 272.156 346.209 272.867 346.624C273.274 346.863 273.672 347.116 274.062 347.383C274.552 347.723 274.931 348.209 275.15 348.777C275.37 349.344 275.419 349.968 275.292 350.565C275.164 351.162 274.866 351.706 274.437 352.124C274.007 352.542 273.466 352.816 272.884 352.909L272.824 352.919C272.781 352.925 272.745 352.932 272.702 352.938C273.992 356.139 275.803 359.085 278.055 361.648C280.837 364.75 284.199 367.228 287.936 368.932C291.672 370.636 295.704 371.528 299.785 371.555H299.791C300.899 376.557 302.503 381.425 304.58 386.082H321.687C321.748 385.884 321.803 385.68 321.858 385.483C320.275 385.586 318.685 385.488 317.125 385.19C318.394 383.571 319.663 381.94 320.933 380.322C320.961 380.292 320.987 380.26 321.012 380.226C321.656 379.398 322.306 378.576 322.95 377.748L322.95 377.747C322.984 375.208 322.703 372.675 322.115 370.21Z" fill="#E6E6E6"/>
<path d="M404.347 94.5706C404.677 94.8756 404.909 95.2786 405.011 95.7251C405.114 96.1716 405.081 96.64 404.919 97.0669C404.757 97.4937 404.472 97.8584 404.103 98.1114C403.735 98.3645 403.3 98.4937 402.859 98.4816L402.343 98.8113C402.325 98.8603 402.306 98.9095 402.287 98.9586C401.873 100.062 401.781 101.269 402.024 102.426C402.268 103.584 402.835 104.641 403.654 105.465C404.474 106.289 405.509 106.842 406.63 107.057C407.752 107.271 408.909 107.136 409.957 106.669C414.141 104.807 418.672 103.285 422.166 100.374C423.71 99.0868 425.027 97.531 426.059 95.7759C422.753 105.404 417.494 114.18 410.637 121.511C408.915 123.348 407.095 125.084 405.186 126.711C403.62 128.043 402.001 129.3 400.329 130.484C391.247 136.895 380.832 140.976 369.938 142.392C366.301 141.334 362.439 141.459 358.872 142.752C357.587 143.213 356.372 143.865 355.267 144.688C355.569 144.922 355.863 145.175 356.148 145.428C356.235 145.508 356.327 145.593 356.415 145.673L356.448 145.703C356.755 145.987 356.977 146.358 357.086 146.77C357.195 147.182 357.188 147.619 357.064 148.026C356.94 148.434 356.705 148.796 356.388 149.069C356.071 149.341 355.685 149.512 355.276 149.562C355.022 149.593 354.768 149.623 354.513 149.654C354.124 149.704 353.734 149.745 353.344 149.796C353.304 149.797 353.263 149.8 353.223 149.806C352.777 149.862 352.335 149.913 351.889 149.968C351.7 150.936 351.729 151.937 351.973 152.891C352.842 156.173 356.435 158.148 359.682 157.727C362.933 157.309 365.713 154.92 367.434 152.027C368.83 149.497 369.802 146.739 370.307 143.87C370.554 143.835 370.801 143.809 371.047 143.774C375.569 143.125 380.019 142.017 384.332 140.466C380.786 143.506 377.984 147.378 376.159 151.762C374.553 155.945 374.427 160.71 373.973 165.272C373.428 170.752 379.526 174.296 383.619 170.794C383.659 170.76 383.698 170.726 383.738 170.692C383.607 170.226 383.492 169.756 383.392 169.282C383.27 168.683 383.325 168.061 383.549 167.495C383.773 166.929 384.157 166.447 384.649 166.112C385.141 165.776 385.72 165.603 386.308 165.615C386.897 165.627 387.469 165.824 387.948 166.179L387.997 166.216C388.917 165.019 389.748 163.752 390.482 162.425C392.506 158.691 393.766 154.564 394.182 150.301C394.599 146.038 394.163 141.732 392.903 137.652C392.818 137.387 392.736 137.127 392.646 136.867C398.188 134.021 403.35 130.438 408.003 126.209C410.739 123.705 413.277 120.976 415.59 118.047L415.513 118.156C413.256 121.732 412.255 126.007 412.68 130.26C413.35 136.535 417.109 142.403 418.572 148.383C418.717 149.031 419.036 149.622 419.493 150.087C419.95 150.552 420.526 150.872 421.152 151.008C421.778 151.145 422.428 151.092 423.027 150.857C423.625 150.622 424.146 150.214 424.529 149.681C424.555 149.642 424.582 149.604 424.608 149.565C424.282 148.789 424.003 147.992 423.772 147.179C423.641 146.713 423.526 146.243 423.427 145.769C423.304 145.17 423.359 144.547 423.583 143.982C423.807 143.416 424.191 142.934 424.683 142.599C425.176 142.263 425.754 142.09 426.343 142.102C426.931 142.114 427.503 142.311 427.982 142.666L428.031 142.702C428.066 142.729 428.097 142.751 428.132 142.778C429.358 139.55 430.04 136.127 430.149 132.658C430.24 128.419 429.497 124.205 427.965 120.275C426.434 116.345 424.146 112.782 421.242 109.803L421.237 109.799C423.804 105.414 425.924 100.763 427.565 95.9225L415.315 83.5155C415.138 83.6124 414.961 83.7185 414.789 83.8199C415.993 84.8942 417.065 86.1176 417.982 87.4628C415.986 87.7012 413.982 87.9488 411.986 88.1872C411.945 88.1883 411.905 88.1919 411.865 88.1978C410.847 88.324 409.83 88.4412 408.812 88.5674L408.811 88.5679C407.081 90.3612 405.581 92.3792 404.347 94.5706Z" fill="#E6E6E6"/>
<path d="M109.421 144.328L93.9943 162.54L102.755 171.31C102.755 171.31 115.461 149.646 115.883 148.808C117.05 148.635 118.14 148.098 119.007 147.267C119.874 146.437 120.479 145.352 120.74 144.157C121.001 142.962 120.907 141.713 120.47 140.575C120.033 139.436 119.274 138.463 118.293 137.783C117.312 137.103 116.155 136.748 114.976 136.766C113.797 136.783 112.65 137.173 111.689 137.882C110.727 138.592 109.996 139.588 109.591 140.739C109.186 141.89 109.126 143.141 109.421 144.328Z" fill="#A0616A"/>
<path d="M55.5347 133.278C55.8524 152.288 69.7375 167.935 80.2599 185.095C81.8095 186.159 83.5556 186.875 85.3866 187.197C87.2176 187.519 89.0932 187.441 90.8935 186.968C92.6938 186.494 94.3791 185.635 95.8418 184.446C97.3044 183.257 98.5122 181.764 99.388 180.062L108.616 162.361L96.872 158.944L90.6425 163.192L77.6469 147.334L55.5347 133.278Z" fill="#3F3D56"/>
</g>
<defs>
<clipPath id="clip0_55_12">
<rect width="636" height="513" fill="white"/>
</clipPath>
</defs>
</svg>
